<svg xmlns="http://www.w3.org/2000/svg" width="32" height="32"><path d="M27.978 30.4c0 .88-.72 1.6-1.599 1.6H10.991c-4.196 0-7.594-3.42-7.594-7.6v-2.94l-.66.66c-.619.62-1.638.62-2.257 0-.62-.62-.62-1.64 0-2.26l3.397-3.4c.62-.62 1.639-.62 2.258 0l3.398 3.4c.62.62.62 1.64 0 2.26-.32.32-.72.46-1.14.46-.42 0-.819-.16-1.139-.46l-.66-.66v2.94c0 2.42 1.98 4.4 4.397 4.4H26.38c.88 0 1.6.72 1.6 1.6zm3.537-20.52a1.603 1.603 0 00-2.258 0l-.66.66V7.6c0-4.2-3.397-7.6-7.593-7.6H5.596c-.88 0-1.6.72-1.6 1.6 0 .88.72 1.6 1.6 1.6h15.388a4.411 4.411 0 014.396 4.4v2.94l-.66-.66a1.603 1.603 0 00-2.257 0c-.62.62-.62 1.64 0 2.26l3.397 3.4c.32.32.72.46 1.139.46.42 0 .82-.16 1.139-.46l3.397-3.4c.62-.62.62-1.64 0-2.26z" fill="#0070f2" stroke-width="0"/></svg>