<svg xmlns="http://www.w3.org/2000/svg" width="200" height="90"><path d="M154.513 0a45.6 45.6 0 00-37.26 19.235s-.02.01-.02.02l-.749 1.04-26.923 37.441-7.93 11.02-1.27 1.756-.174.243C72.38 80.968 59.943 87.467 45.682 87.467c-22.027 0-40.232-16.349-42.793-37.38h46.788L30.14 69.331l7.243 7.135 31.76-31.285-32.046-31.568-7.244 7.135L49.39 39.994H2.88C5.399 18.922 23.635 2.513 45.692 2.513c7.776 0 15.07 2.049 21.381 5.611a11.238 11.07 0 00-2.418 6.883c0 4.894 3.217 9.052 7.663 10.566 1.158.394 2.398.616 3.689.616 2.653 0 5.091-.909 7.017-2.412a11.59 11.417 0 002.971-3.482 10.969 10.969 0 001.353-5.278c0-6.166-5.092-11.182-11.352-11.182-2.674 0-5.122.918-7.069 2.442A45.38 44.702 0 0045.682 0C20.49 0 0 20.184 0 45s20.49 45 45.682 45c11.976 0 23.317-4.501 31.912-12.665a44.33 43.668 0 004.211-4.612c.123-.081.246-.182.338-.313l1.363-1.887 27.302-37.976 8.504-11.828c.092-.131.153-.273.184-.414h.113c7.796-10.748 20.53-17.772 34.894-17.772 21.965 0 40.118 16.41 42.618 37.482H150.62l19.537-19.246-7.243-7.135-31.76 31.285 32.047 31.568 7.243-7.135-19.537-19.245H197.1c-2.572 21-20.685 37.33-42.598 37.33-8.073 0-15.419-1.888-21.668-5.278 1.752-1.968 2.817-4.532 2.817-7.347 0-5.41-3.924-9.93-9.118-10.96a11.421 11.421 0 00-9.65 2.513 11.033 11.033 0 00-1.834 1.998 10.978 10.978 0 00-2.09 6.439c0 6.166 5.091 11.181 11.351 11.181 2.418 0 4.651-.756 6.495-2.028 6.782 3.845 14.835 5.995 23.707 5.995 25.08 0 45.487-20.174 45.487-44.97S179.592.01 154.513.01zm-83.25 7.73a8.698 8.568 0 014.733-1.372c4.846 0 8.79 3.885 8.79 8.659a8.778 8.647 0 01-1.833 5.278 8.75 8.75 0 01-1.281 1.322 8.697 8.567 0 01-5.665 2.049 8.863 8.863 0 01-3.689-.808 8.779 8.648 0 01-5.102-7.851c0-2.11.78-4.047 2.06-5.55a8.764 8.764 0 011.997-1.727zm44.268 67.072c0-1.464.369-2.836 1.025-4.037.04-.081.092-.162.143-.242a8.845 8.845 0 011.527-1.938 8.745 8.614 0 016.095-2.432 9.09 9.09 0 012.234.292c3.76.98 6.556 4.35 6.556 8.357 0 2.351-.952 4.48-2.5 6.035a8.595 8.467 0 01-2.223 1.624 8.849 8.849 0 01-4.057.99c-4.845 0-8.79-3.886-8.79-8.66z" fill="#1a2733"/><path d="M126.544 66.445a9.088 9.088 0 00-2.233-.292 8.814 8.814 0 00-6.096 2.432 8.55 8.55 0 00-1.526 1.938c-.052.08-.092.161-.144.242a8.565 8.565 0 00-1.024 4.037c0 4.773 3.944 8.658 8.79 8.658a8.849 8.849 0 004.057-.989 8.83 8.83 0 002.223-1.624 8.756 8.626 0 002.5-6.035c0-4.007-2.787-7.388-6.557-8.357z" fill="#0070f2"/><path d="M75.996 6.358a8.82 8.82 0 00-4.733 1.372 9.019 9.019 0 00-1.998 1.726 8.748 8.618 0 00-2.059 5.55c0 3.472 2.1 6.47 5.102 7.852a8.828 8.828 0 003.688.808 8.751 8.62 0 006.946-3.371 8.69 8.56 0 001.834-5.278c0-4.774-3.944-8.659-8.79-8.659z" fill="#89d1ff"/></svg>