<svg xmlns="http://www.w3.org/2000/svg" width="16" height="16"><path fill="#fff" fill-rule="evenodd" d="M8.003 0a8.005 8.204 0 00-2.53 15.987c.4.073.548-.18.548-.394 0-.197-.006-.712-.01-1.394-2.23.493-2.698-1.103-2.698-1.103-.363-.948-.89-1.199-.89-1.199-.725-.509.058-.5.058-.5.803.058 1.226.847 1.226.847.713 1.252 1.873.89 2.329.682.073-.528.279-.89.51-1.096-1.782-.208-3.65-.913-3.65-4.057a3.095 3.172 0 01.826-2.202c-.081-.208-.357-1.041.078-2.169 0 0 .672-.221 2.202.84a7.637 7.827 0 014.009 0c1.53-1.061 2.199-.84 2.199-.84.437 1.128.162 1.965.078 2.17.512.573.822 1.304.822 2.201 0 3.15-1.874 3.846-3.656 4.047.288.254.544.754.544 1.52 0 1.096-.01 1.98-.01 2.249 0 .219.145.475.551.394A8.005 8.204 0 008.003 0z"/></svg>