<svg xmlns="http://www.w3.org/2000/svg" width="52" height="26" fill="none"><mask id="a" width="52" height="26" x="0" y="0" maskUnits="userSpaceOnUse" style="mask-type:luminance"><path fill="#fff" fill-rule="evenodd" d="M0 26V0h52v26H0Z" clip-rule="evenodd"/></mask><g fill-rule="evenodd" clip-rule="evenodd" mask="url(#a)"><path fill="url(#b)" d="M26 26 52 0H0v26h26Z"/><path fill="#FFFFFE" d="M31.16 12.585h-1.128V8.461h1.128c1.504 0 2.703.5 2.703 2.035 0 1.589-1.2 2.09-2.703 2.09ZM19.03 15.526a4.67 4.67 0 0 1-1.64-.286l1.623-5.119h.03l1.595 5.133c-.48.17-1.027.272-1.608.272Zm11.83-10.413-5.118-.003v12.17L21.269 5.11h-4.433l-3.818 10.178c-.407-2.567-3.062-3.453-5.15-4.117-1.379-.443-2.843-1.095-2.829-1.815.011-.59.785-1.14 2.317-1.057 1.03.055 1.939.138 3.747 1.01l1.778-3.096c-1.65-.84-3.93-1.371-5.798-1.373H7.07c-2.178 0-3.994.706-5.119 1.87A4.316 4.316 0 0 0 .727 9.694c-.029 1.57.548 2.685 1.757 3.574 1.022.749 2.33 1.235 3.481 1.591 1.421.441 2.58.823 2.568 1.64-.01.297-.124.574-.337.799-.354.365-.899.502-1.65.517-1.45.03-2.526-.197-4.238-1.21l-1.58 3.141a11.818 11.818 0 0 0 5.793 1.542l.266-.003c1.796-.033 3.247-.545 4.404-1.477.067-.053.127-.108.188-.162l-.513 1.372h4.65l.78-2.374c.817.28 1.746.433 2.733.433.961 0 1.866-.146 2.668-.41l.752 2.35h7.583v-4.913h1.653c4 0 6.364-2.036 6.364-5.448 0-3.8-2.298-5.544-7.19-5.544Z"/></g><defs><linearGradient id="b" x1="0" x2="0" y1="0" y2="26" gradientUnits="userSpaceOnUse"><stop stop-color="#00B9F2"/><stop offset="1" stop-color="#0072BC"/></linearGradient></defs></svg>